# xmcd
#
# Track frame offsets:
#	150
#	11740
#	23852
#	35249
#	48332
#	61722
#	72814
#	82565
#	94604
#	105782
#	117581
#
# Disc length: 1738 seconds
# Revision: 0
# Processed by: cddbd v1.5.2PL0 Copyright (c) Steve Scherf et al.
# Submitted via: dBpowerAMP V12.0
#
DISCID=7c06c80b
DTITLE=The Marvelettes - Please Mr. Postman
DYEAR=1961
DGENRE=R&B
TTITLE0=Angel
TTITLE1=I Want a Guy
TTITLE2=Please Mr. Postman
TTITLE3=So Long Baby
TTITLE4=I Know How It Feels
TTITLE5=Way Over There
TTITLE6=Happy Days
TTITLE7=You Don't Want Me No More
TTITLE8=All the Love I Got
TTITLE9=Whisper
TTITLE10=Oh I Apologize
EXTD=
EXTT0=
EXTT1=
EXTT2=
EXTT3=
EXTT4=
EXTT5=
EXTT6=
EXTT7=
EXTT8=
EXTT9=
EXTT10=
PLAYORDER=
